# xmcd
#
# Track frame offsets:
#	150
#	45770
#	85278
#	110952
#	134036
#
# Disc length: 2028 seconds
#
# Revision: 0
# Processed by: cddbd v1.5PL3 Copyright (c) Steve Scherf et al.
# Submitted via: dBpowerAMP V4.0
#
DISCID=4107ea05
DTITLE=Prince - C-Note
DYEAR=2004
DGENRE=Funk
TTITLE0=Copenhagen
TTITLE1=Nagoya
TTITLE2=Osaka
TTITLE3=Tokyo
TTITLE4=Empty Room
EXTD=
EXTT0=
EXTT1=
EXTT2=
EXTT3=
EXTT4=
PLAYORDER=
